<?xml version="1.0" encoding="utf-8"?>
<!-- Generator: Adobe Illustrator 24.0.0, SVG Export Plug-In . SVG Version: 6.00 Build 0)  -->
<svg version="1.1" id="Layer_1" xmlns="http://www.w3.org/2000/svg" xmlns:xlink="http://www.w3.org/1999/xlink" x="0px" y="0px"
	 viewBox="0 0 288 288" style="enable-background:new 0 0 288 288;" xml:space="preserve">
<style type="text/css">
	.st0{display:none;fill:none;stroke:#FFFFFF;stroke-miterlimit:10;}
	.st1{fill:#8E8E8E;stroke:#231F20;stroke-width:0.5;stroke-miterlimit:10;}
	.st2{fill:#F8F8F8;stroke:#231F20;stroke-width:0.5;stroke-miterlimit:10;}
	.st3{fill:#FFFFFF;stroke:#000000;stroke-miterlimit:10;}
	.st4{fill:#231F20;stroke:#231F20;stroke-miterlimit:10;}
	.st5{fill:#606060;stroke:#231F20;stroke-width:0.5;stroke-miterlimit:10;}
	.st6{fill:#606060;}
</style>
<g id="Cat_3_">
	<path class="st0" d="M289.3,127.25c0,83.53-67.72,151.25-151.25,151.25c-32.42,0-62.45-10.2-87.07-27.56
		C12.15,223.57-13.2,178.37-13.2,127.25C-13.2,43.72,54.51-24,138.05-24S289.3,43.72,289.3,127.25z"/>
	<path class="st1" d="M64.41,74.73c0,0,2.27-3.03-2.27-10.59c0,0-15.13-23.44,0-22.69c15.13,0.76,13.61,27.98,13.61,27.98
		L64.41,74.73z"/>
	<path class="st2" d="M279.09,181.33c-9.54-14.05-19.11-20.7-26.37-24.16c0,0-14.14-6.91-23.67-13.08
		c-2.24-1.45-4.61-3.28-7.33-5.82c-2.17-2.03-2.98-3.03-18.15-21.18c0,0-31.76-62.01-90-66.55c-11.6-7.56-23.19-15.13-34.79-22.69
		c0,0-37.81-24.2-12.86,17.39c0,0,9.08,17.39,3.78,23.44c-5.29,6.05-7.56,6.05-7.56,6.05c-3.21,1.58-5.41,3.3-6.81,4.54
		c-1.68,1.49-2.76,2.8-6.81,7.56c0,0-18.91,11.34-18.15,27.23c0.76,15.88-4.54,33.28-4.54,33.28s-9.08,15.88-9.08,19.66
		c0,0-4.54,14.37,8.32,16.64c0,0,4.92,10.21,14.75,10.97c0,0,5.29,11.34,25.71,8.32c16.88-2.5,21.87-5,23.52-3.66
		c0.33,0.27,0.5,0.74,0.68,1.39c1.99,7.27,1.29,55.54,1.04,70.67c12.09,4.17,53.11,16.63,99.92-0.72c6.74-2.5,42.7-16.4,69.48-53.73
		C269.85,203.4,275.62,190.65,279.09,181.33z"/>
</g>
<path class="st3" d="M-10.73,157.68"/>
<g id="Mouse_5_">
	<path class="st4" d="M176.81,237.93c-0.46,0.58,3.74,4.88,7.26,7.68c4.39,3.49,13.47,9.22,29.27,9.96
		c1.48-0.11,3.08-0.32,4.78-0.65c4.53-0.9,8.26-2.44,11.1-3.93c3.92-3.49,9.11-8.34,14.9-14.46c6.56-6.93,11.09-12.56,12.82-14.73
		c16.06-20.2,17.12-28.79,17.35-31.85c0.22-2.95,0-5.4-0.22-7.02c-3.45-10.56-5.87-12.58-7.46-12.52
		c-4.62,0.17-0.78,18.89-13.18,31.1c-4.39,4.32-10.84,7.86-12.83,16.03c-0.54,2.24-0.6,4.17-0.55,5.45
		c-16.16,7.95-32.32,15.91-48.47,23.86l0,0C184.89,242.22,177.37,237.22,176.81,237.93z"/>
	<path class="st5" d="M188.2,201.88c3.89-6.27,10.88-15.84,22.33-24.35c5.93-4.41,13.36-8.81,23.88-12
		c15.35-4.65,29.7-1.59,35.71,7.27c1.27,1.88,2.86,5.03,3.15,9.86c0,0-0.3,7.27-7.6,10.87s-17.77,16.52-17.77,16.52
		c-2.88,4.23-5.77,8.45-8.65,12.68C222.24,215.78,205.22,208.83,188.2,201.88z"/>
	<path class="st4" d="M192.67,235.95c0,0-5.95-4.19,4.81-21.8c10.76-17.6,14.8-14.89,14.8-14.89s1.9,0.64,2.07,3.51
		c0.31,5.32-4.03,8.45-8.34,16.89c-4.9,9.59-2.86,14.98-7.64,17.36c-3.77,1.87-9.06,0.53-9.09-0.06
		C189.27,236.63,190.96,236.25,192.67,235.95z"/>
	<path class="st5" d="M191.56,246.85l-1.27-5.2l2.37-5.7c0,0-4.64-5.49,4.28-20.24c8.93-14.75,13.87-16.54,13.87-16.54
		s8.4-13.2,10.48-14.23c0,0-11.92-5.79-28.67,14.11c0,0-1.05,1.81-4.43,2.83c0,0-19.14,28.2-11.14,36.57
		C177.07,238.45,188.19,246.57,191.56,246.85z"/>
	<path class="st5" d="M240.04,222.99c0,0-2.04-5.47-3.34-6.78s-2.06-2.87-2.06-2.87s-1.8-3.65-0.19-10.91
		c1.6-7.27-4.85-13.8-4.85-13.8s-6.98-4.98-8.29-3.69l-10.48,14.23c0,0,9.37-2.02-4.8,20.5c-14.17,22.52-13.35,16.29-13.35,16.29
		l-2.37,5.7l1.27,5.2c0,0,18.39,9.73,27.79,1.21C228.76,239.55,240.04,222.99,240.04,222.99z"/>
	<path class="st6" d="M197.79,227.28c0,0-3.86-5.22,0.06-10.39c3.93-5.17,6.28-6.98,9.65-6.7
		C207.51,210.19,204.31,223.42,197.79,227.28z"/>
</g>
</svg>
